name rise30.2954peak35.7071fall66.7804.mot
datacolumns 19
datarows 17
range 15.59327600000000 15.61994200000000
endheader
time	ground_force1_vx	ground_force1_vy	ground_force1_vz	ground_force1_px	ground_force1_py	ground_force1_pz	ground_force2_vx	ground_force2_vy	ground_force2_vz	ground_force2_px	ground_force2_py	ground_force2_pz	ground_torque1_x	ground_torque1_y	ground_torque1_z	ground_torque2_x	ground_torque2_y	ground_torque2_z	
15.59327600000000	-40.21174000000000	787.60518800000000	58.62399000000000	0.05925400000000	0.00000000000000	0.14178400000000	0.00000000000000	0.00000000000000	0.00000000000000	0.00000000000000	0.00000000000000	0.00000000000000	0.00000000000000	19.49761200000000	0.00000000000000	0.00000000000000	0.00000000000000	0.00000000000000	
15.59494500000000	-40.46611200000000	785.31949599999996	58.28399500000000	0.05872300000000	0.00000000000000	0.14166600000000	0.00000000000000	0.00000000000000	0.00000000000000	0.00000000000000	0.00000000000000	0.00000000000000	0.00000000000000	19.43511700000000	0.00000000000000	0.00000000000000	0.00000000000000	0.00000000000000	
15.59661400000000	-40.74416600000000	782.98335599999996	57.92789500000000	0.05819500000000	0.00000000000000	0.14154400000000	-1.57489100000000	3.52101000000000	1.07711600000000	0.00000000000000	0.00000000000000	0.00000000000000	0.00000000000000	19.37779500000000	0.00000000000000	0.00000000000000	0.26228400000000	0.00000000000000	
15.59828100000000	-41.04667100000000	780.59671800000001	57.55570500000000	0.05766700000000	0.00000000000000	0.14141800000000	-2.51265000000000	6.86098100000000	1.82113500000000	0.00000000000000	0.00000000000000	0.00000000000000	0.00000000000000	19.32588500000000	0.00000000000000	0.00000000000000	0.45516900000000	0.00000000000000	
15.59994300000000	-41.37431600000000	778.15931999999998	57.16745500000000	0.05714100000000	0.00000000000000	0.14128900000000	-3.57172800000000	10.90786700000000	2.68345000000000	0.00000000000000	0.00000000000000	0.00000000000000	0.00000000000000	19.27960700000000	0.00000000000000	0.00000000000000	0.68095200000000	0.00000000000000	
15.60161200000000	-41.72771000000000	775.67068099999995	56.76319000000000	0.05661500000000	0.00000000000000	0.14115500000000	-4.71952400000000	15.62215300000000	3.64413600000000	0.00000000000000	0.00000000000000	0.00000000000000	0.00000000000000	19.23916200000000	0.00000000000000	0.00000000000000	0.93509100000000	0.00000000000000	
15.60327700000000	-42.10737600000000	773.13009899999997	56.34296900000000	0.05609000000000	0.00000000000000	0.14101800000000	-5.91541200000000	20.93362900000000	4.67663800000000	0.00000000000000	0.00000000000000	0.00000000000000	0.00000000000000	19.20472800000000	0.00000000000000	0.00000000000000	1.21130300000000	0.00000000000000	
15.60494400000000	-42.51374500000000	770.53664500000002	55.90686600000000	0.05556500000000	0.00000000000000	0.14087600000000	-7.11339500000000	26.74676700000000	5.74953000000000	0.26525400000000	0.00000000000000	-0.05712300000000	0.00000000000000	19.17645900000000	0.00000000000000	0.00000000000000	2.62074100000000	0.00000000000000	
15.60660800000000	-42.94715400000000	767.88915999999995	55.45496800000000	0.05504100000000	0.00000000000000	0.14073100000000	-8.26544400000000	32.94884800000000	6.82885400000000	0.27101500000000	0.00000000000000	-0.05796400000000	0.00000000000000	19.15448700000000	0.00000000000000	0.00000000000000	3.17046900000000	0.00000000000000	
15.60827600000000	-43.40784100000000	765.18625799999995	54.98737600000000	0.05451700000000	0.00000000000000	0.14058200000000	-9.32509400000000	39.41974100000000	7.88072400000000	0.27609800000000	0.00000000000000	-0.05873200000000	0.00000000000000	19.13891900000000	0.00000000000000	0.00000000000000	3.72158600000000	0.00000000000000	
15.60994400000000	-43.89594000000000	762.42632400000002	54.50420400000000	0.05399200000000	0.00000000000000	0.14042900000000	-10.25081400000000	46.04195100000000	8.87385200000000	0.28060900000000	0.00000000000000	-0.05944000000000	0.00000000000000	19.12983500000000	0.00000000000000	0.00000000000000	4.25863200000000	0.00000000000000	
15.61160800000000	-44.41147800000000	759.60751400000004	54.00557800000000	0.05346800000000	0.00000000000000	0.14027300000000	-11.00871600000000	52.70959500000000	9.78164200000000	0.28463400000000	0.00000000000000	-0.06009500000000	0.00000000000000	19.12728900000000	0.00000000000000	0.00000000000000	4.76800200000000	0.00000000000000	
15.61327800000000	-44.95437300000000	756.72776199999998	53.49163900000000	0.05294300000000	0.00000000000000	0.14011200000000	-11.57434800000000	59.33534600000000	10.58368100000000	0.28824200000000	0.00000000000000	-0.06070500000000	0.00000000000000	19.13130800000000	0.00000000000000	0.00000000000000	5.23875800000000	0.00000000000000	
15.61494600000000	-45.52442900000000	753.78477899999996	52.96253700000000	0.05241900000000	0.00000000000000	0.13994800000000	-11.93347000000000	65.85485500000000	11.26650400000000	0.29149200000000	0.00000000000000	-0.06127400000000	0.00000000000000	19.14188900000000	0.00000000000000	0.00000000000000	5.66310600000000	0.00000000000000	
15.61661100000000	-46.12133500000000	750.77606400000002	52.41843800000000	0.05189400000000	0.00000000000000	0.13978000000000	-12.08188700000000	72.22859900000000	11.82368300000000	0.29443200000000	0.00000000000000	-0.06180900000000	0.00000000000000	19.15900400000000	0.00000000000000	0.00000000000000	6.03655100000000	0.00000000000000	
15.61827500000000	-46.74466100000000	747.69890699999996	51.85951900000000	0.05136900000000	0.00000000000000	0.13960900000000	-12.02448700000000	78.44137300000000	12.25531800000000	0.29710000000000	0.00000000000000	-0.06231200000000	0.00000000000000	19.18259000000000	0.00000000000000	0.00000000000000	6.35774500000000	0.00000000000000	
15.61994200000000	-47.39385400000000	744.55039799999997	51.28596800000000	0.05084300000000	0.00000000000000	0.13943400000000	-11.77369200000000	84.49985900000000	12.56708000000000	0.29953100000000	0.00000000000000	-0.06278700000000	0.00000000000000	19.21255700000000	0.00000000000000	0.00000000000000	6.62810100000000	0.00000000000000	
